<svg width="48" height="34" viewBox="0 0 48 34" xmlns="http://www.w3.org/2000/svg"><g fill="#1D1D1B" fill-rule="evenodd"><path d="M47.376 2.941L31.524 8.543l15.32 8.674-15.38 8.623 15.912 5.763v2.418l-21.558-7.788 16.192-9.047-16.18-9.042L47.376.53z"/><path d="M20.283 10.137a7.271 7.271 0 1 1 3.681 14.069 7.271 7.271 0 0 1-3.681-14.07zm4.302 2.824a4.868 4.868 0 0 0-3.701-.505 4.857 4.857 0 0 0-2.97 2.254 4.864 4.864 0 0 0-.546 3.538c.035.103.062.208.083.317a4.86 4.86 0 0 0 2.211 2.817 4.863 4.863 0 0 0 3.537.545 2.35 2.35 0 0 1 .317-.083 4.86 4.86 0 0 0 2.818-2.21 4.865 4.865 0 0 0 .506-3.698v-.004a4.858 4.858 0 0 0-2.255-2.97zm-12.306 8.38L.514 17.091l11.764-4.158v2.403l-4.956 1.76 4.957 1.794z"/></g></svg>