<svg width="51" height="33" viewBox="0 0 51 33" xmlns="http://www.w3.org/2000/svg"><g fill="#1D1D1B" fill-rule="evenodd"><path d="M39.524 2.978L26.545 13.662l17.363 2.912-11.503 13.363 16.922-.026.827 2.272-22.921.054 12.121-14.039-18.295-2.963L38.699.712z"/><path d="M16.527 19.005a7.271 7.271 0 1 1 8.271 11.961 7.271 7.271 0 0 1-8.271-11.96zm5.009 1.183a4.868 4.868 0 0 0-3.652.791 4.857 4.857 0 0 0-2.02 3.134 4.864 4.864 0 0 0 .698 3.511c.067.085.13.175.186.27a4.86 4.86 0 0 0 3.041 1.89 4.863 4.863 0 0 0 3.51-.697 2.35 2.35 0 0 1 .27-.186 4.86 4.86 0 0 0 1.891-3.041 4.865 4.865 0 0 0-.788-3.648l-.003-.004a4.858 4.858 0 0 0-3.133-2.02zm-8.699 12.084l-12.508.03 9.632-7.93.822 2.256-4.056 3.349L12 29.968z"/></g></svg>