<svg width="46" height="42" viewBox="0 0 46 42" xmlns="http://www.w3.org/2000/svg"><title>Shape</title><path d="M37.042 18.12l-.01.26c-.206 5.14-1.038 9.023-2.531 11.612-1.496 2.692-3.763 4.682-6.851 5.996l3.527 5.662c5.1-2.398 8.863-5.848 11.185-10.3 1.861-3.427 2.77-8.954 2.77-16.78V.42h-16.2v17.7h8.11zm-26.9 0l-.01.26c-.206 5.14-1.038 9.023-2.531 11.612-1.496 2.692-3.763 4.682-6.851 5.996l3.527 5.662c5.1-2.398 8.863-5.848 11.185-10.3 1.861-3.427 2.77-8.954 2.77-16.78V.42h-16.2v17.7h8.11z" fill="#FFF"/></svg>