<svg width="46" height="42" viewBox="0 0 46 42" xmlns="http://www.w3.org/2000/svg"><title>Shape</title><path d="M8.84 23.95l.01-.26c.206-5.14 1.038-9.023 2.531-11.611 1.496-2.693 3.763-4.683 6.851-5.997L14.705.42c-5.1 2.398-8.863 5.848-11.185 10.3C1.659 14.146.75 19.674.75 27.5v14.15h16.2v-17.7H8.84zm26.9 0l.01-.26c.206-5.14 1.038-9.023 2.531-11.611 1.496-2.693 3.763-4.683 6.851-5.997L41.605.42c-5.1 2.398-8.863 5.848-11.185 10.3-1.861 3.427-2.77 8.955-2.77 16.78v14.15h16.2v-17.7h-8.11z" fill="#FFF"/></svg>